<svg version="1.1" id="Layer_1" xmlns="http://www.w3.org/2000/svg" xmlns:xlink="http://www.w3.org/1999/xlink" x="0px" y="0px"
	 width="100%" viewBox="0 0 736 736" enable-background="new 0 0 736 736" xml:space="preserve">
<path fill="none" opacity="1.000000" stroke="#000000" stroke-linecap="round" stroke-linejoin="round" stroke-width="5.000000"
	d="
M199.500000,476.500000 
	C198.102921,474.566803 196.819702,471.649353 194.056778,472.655853 
	C191.318008,473.653534 192.514694,476.795990 192.546631,478.999329 
	C192.900940,503.441254 198.221283,526.939026 205.966141,550.011353 
	C213.870148,573.557739 225.431595,595.147156 241.613190,613.902344 
	C259.829102,635.015259 282.611359,649.588318 309.498230,657.506042 
	C337.148834,665.648682 365.233582,666.588745 393.475616,661.854492 
	C403.461395,660.180603 413.650299,657.948914 422.870758,653.951843 
	C433.107727,649.514038 443.643463,644.643433 451.816772,636.808838 
	C456.657776,632.168518 461.996796,633.589172 467.015961,633.212769 
	C477.343536,632.438416 487.684875,634.089905 497.997131,635.031494 
	C505.345306,635.702515 512.682617,636.547546 519.996338,637.527283 
	C531.676697,639.092041 543.423523,640.373657 554.972534,642.640015 
	C564.870789,644.582581 574.906067,646.174255 584.495422,649.513062 
	C590.353821,651.552795 596.747253,652.690125 600.824646,658.567139 
	C597.692932,664.436768 591.917908,666.445496 586.470947,668.419861 
	C563.384644,676.788086 539.183044,679.950806 514.993225,682.945496 
	C499.195679,684.901245 483.353607,686.570801 467.493500,687.923645 
	C455.192780,688.972839 442.831818,689.306213 430.500305,690.005432 
	C400.181458,691.724487 369.818420,691.438904 339.505920,690.742615 
	C321.185150,690.321777 302.814819,689.624695 284.483063,688.221375 
	C269.503601,687.074768 254.482590,686.191162 239.506546,684.922729 
	C226.142029,683.790710 212.762466,682.451904 199.519562,680.375244 
	C185.774597,678.219849 171.961746,676.210876 158.501434,672.494812 
	C149.799179,670.092346 141.038818,667.812073 133.502808,662.496033 
	C129.449890,659.636902 129.162735,656.537598 133.033127,653.542847 
	C138.612457,649.225647 145.321686,647.254211 152.011490,645.544922 
	C171.054810,640.679443 190.513992,638.132446 210.011826,636.114319 
	C220.111221,635.068909 230.359268,634.779419 240.491974,636.063416 
	C248.907593,637.129822 257.186859,639.015747 264.988770,642.524963 
	C266.069916,643.011230 267.014099,643.813293 267.997009,644.504272 
	C269.952057,645.878418 272.379486,647.252197 271.901031,649.982666 
	C271.379883,652.956787 268.381073,653.393616 265.986694,653.941956 
	C262.780945,654.676025 259.597443,655.406006 257.020996,657.525513 
	C254.098175,659.929993 254.262711,661.609436 257.505951,663.991882 
	C262.405029,667.590576 268.375885,668.216980 274.018341,669.413513 
	C295.927368,674.059753 318.120026,676.452759 340.493347,677.626831 
	C350.167603,678.134521 359.834839,678.797485 369.497070,678.423950 
	C383.341919,677.888794 397.227722,677.385315 410.984894,675.863342 
	C429.064911,673.863220 447.092407,671.103149 464.474060,665.420715 
	C468.190887,664.205627 472.439850,663.627625 475.177307,659.743652 
	C470.756195,655.830994 465.136353,656.332764 459.994995,656.122437 
	C449.845306,655.707214 439.666626,656.013855 429.500031,655.986511 
	C427.786530,655.981873 425.941254,656.460388 424.500000,655.000000 
"/>
<path fill="none" opacity="1.000000" stroke="#000000" stroke-linecap="round" stroke-linejoin="round" stroke-width="4.000000"
	d="
M316.500000,244.000000 
	C314.525940,243.898178 312.922272,244.494720 311.476868,245.977448 
	C297.322083,260.497498 287.194702,277.439545 284.171204,297.525757 
	C278.973389,332.056671 291.538177,360.537292 316.562561,383.933075 
	C322.879822,389.839203 329.592499,395.341125 336.954987,400.070099 
	C353.659576,410.799530 371.539307,418.360596 390.980347,422.590363 
	C408.389923,426.378143 425.981232,425.932465 443.491791,425.279663 
	C456.505707,424.794556 469.426605,422.116547 482.500244,421.505127 
	C483.331757,421.466217 484.213440,421.324219 484.991669,421.531311 
	C487.900970,422.305511 491.555603,422.303009 492.413971,426.019867 
	C493.118408,429.070099 492.175415,431.779236 489.547638,434.055023 
	C483.709473,439.111267 476.622070,441.432770 469.481689,443.434723 
	C449.231689,449.112274 428.502838,451.616516 407.500031,452.000854 
	C389.499939,452.330231 371.490112,453.187714 353.502899,452.846863 
	C337.005615,452.534241 320.668121,450.643280 304.427887,446.805176 
	C292.121948,443.896820 280.077026,439.411652 267.482056,438.183990 
	C255.897766,437.054840 244.257156,434.205414 232.499313,436.997101 
	C229.477615,437.714539 226.456985,438.494202 224.013596,440.516418 
	C219.792953,444.009644 219.320892,448.456085 222.495239,453.003326 
	C228.910889,462.193634 238.412354,467.023468 248.543045,470.369659 
	C259.537598,474.001251 270.992523,475.867615 282.482574,477.614532 
	C306.889832,481.325348 331.416382,482.030762 355.997589,481.405609 
	C368.230652,481.094482 380.395294,479.609314 392.535034,477.725861 
	C398.128357,476.858124 403.732208,475.307068 409.500000,475.500000 
"/>
<path fill="none" opacity="1.000000" stroke="#000000" stroke-linecap="round" stroke-linejoin="round" stroke-width="4.000000"
	d="
M345.500000,219.000000 
	C339.621735,221.874039 335.359497,227.177582 329.466614,229.928482 
	C323.952545,232.502548 321.263733,237.428848 317.956024,241.967957 
	C316.157806,244.435654 316.902344,247.361298 315.712463,250.092560 
	C310.788391,261.395416 305.973083,272.766998 303.427856,284.984985 
	C299.265381,304.966461 299.888641,324.030945 311.980774,341.513306 
	C320.937103,354.462097 333.705963,362.093933 348.016296,367.456512 
	C366.682373,374.451294 386.184296,376.991180 406.000275,377.489166 
	C419.500092,377.828430 432.973938,378.885681 446.502289,378.614929 
	C450.487366,378.535187 454.576202,379.542145 458.483032,380.564789 
	C465.187256,382.319702 466.955994,387.825531 462.454071,392.959717 
	C458.774231,397.156464 453.531128,399.210022 448.463165,400.888763 
	C435.532806,405.171844 422.053619,406.601288 408.498962,406.961243 
	C389.384583,407.468872 370.379425,406.087830 351.492157,403.048645 
	C349.837921,402.782440 347.941254,402.539612 346.500000,404.000000 
"/>
<path fill="none" opacity="1.000000" stroke="#000000" stroke-linecap="round" stroke-linejoin="round" stroke-width="4.000000"
	d="
M496.500000,596.000000 
	C506.626923,594.479736 511.692078,586.357666 517.404053,579.421021 
	C523.614075,571.879517 531.203369,566.129333 539.579712,561.649048 
	C548.898254,556.664734 558.824219,552.812866 568.501953,548.504333 
	C587.426392,540.079102 601.599365,527.218628 606.953735,506.488037 
	C611.108582,490.401886 607.100708,476.084351 596.490540,463.507996 
	C590.142029,455.982971 582.393127,450.640076 572.496765,449.019653 
	C558.434448,446.717163 546.474731,451.472351 536.575256,461.077576 
	C525.841614,471.492218 520.811462,484.786194 518.957275,499.494629 
	C516.914001,515.703491 514.116394,531.750427 509.606934,547.530579 
	C504.187836,566.493835 496.207703,584.300659 485.814667,600.883850 
	C479.754486,610.553589 472.126434,619.295410 463.548920,627.054077 
	C462.007050,628.448853 460.289856,629.678955 459.398743,631.960449 
	C456.794006,638.629150 459.360992,644.078735 466.501038,645.996155 
	C473.289642,647.819031 480.159424,646.969421 486.998596,646.480286 
	C497.837250,645.705017 508.662323,645.780334 519.501221,646.481384 
	C530.717285,647.206848 541.933167,647.928833 552.995544,650.023621 
	C559.645508,651.282837 566.278015,652.675659 572.501831,655.495972 
	C575.110291,656.677856 577.450134,658.130188 579.079590,661.778503 
	C568.579834,669.011353 556.569092,670.841980 544.500000,672.500000 
"/>
<path fill="none" opacity="1.000000" stroke="#000000" stroke-linecap="round" stroke-linejoin="round" stroke-width="3.000000"
	d="
M378.000000,498.500000 
	C376.666656,498.975037 375.601501,497.688599 373.957520,498.402161 
	C360.946045,504.049622 347.847717,509.371765 336.953949,518.947632 
	C325.179901,529.297363 318.035675,541.887634 315.958496,557.494507 
	C313.032623,579.477905 317.617188,599.649048 330.041260,617.972046 
	C333.746857,623.437073 338.028381,628.127014 344.940308,630.199158 
	C349.199646,631.475952 352.304047,630.168396 354.920807,627.908325 
	C364.118835,619.964111 367.915741,609.426147 369.079865,597.507812 
	C370.568085,582.271240 363.391357,570.571167 354.474548,559.520569 
	C340.447693,542.137085 346.513733,519.626465 363.016815,508.524994 
	C364.892334,507.263306 367.000000,506.700256 369.000000,508.500000 
"/>
<path fill="none" opacity="1.000000" stroke="#000000" stroke-linecap="round" stroke-linejoin="round" stroke-width="5.000000"
	d="
M264.500000,436.000000 
	C256.388214,433.159637 247.879639,432.068573 239.486832,430.573975 
	C229.590363,428.811584 219.537003,428.850525 209.499573,428.962158 
	C205.679733,429.004639 201.990112,429.679901 198.521072,431.053223 
	C189.938446,434.451080 187.341125,441.036713 191.004974,449.497833 
	C194.828674,458.328217 201.665375,463.948090 209.935699,468.613983 
	C223.578156,476.310638 238.466385,479.902618 253.522018,482.889008 
	C264.542145,485.074921 275.764099,486.090424 286.984406,487.163025 
	C310.309235,489.392700 333.653351,488.742096 356.998718,489.086670 
	C362.507355,489.167938 368.042114,490.103516 373.481598,491.100403 
	C376.061615,491.573273 378.711914,492.730957 379.976715,495.449951 
	C378.434875,500.883820 374.863464,504.372131 370.723846,508.239594 
	C358.278412,519.866882 349.034180,537.060974 363.487061,555.010437 
	C369.074280,561.949341 374.748138,568.681702 376.622253,577.975342 
	C379.542969,592.459167 377.947906,605.939453 369.984344,618.490051 
	C367.750275,622.010925 365.509064,625.543701 362.508118,628.508240 
	C361.124329,629.875244 360.227753,631.530518 359.947357,633.476013 
	C363.282471,634.994202 368.086060,634.975830 372.485352,632.967896 
	C385.585968,626.988586 394.747955,617.228088 400.567169,604.029602 
	C404.671265,594.721130 406.915070,585.198364 407.625153,575.008728 
	C409.431549,549.087830 400.796295,527.787720 380.985718,511.016876 
	C379.260223,509.556122 377.333344,508.333313 375.500000,507.000000 
"/>
<path fill="none" opacity="1.000000" stroke="#000000" stroke-linecap="round" stroke-linejoin="round" stroke-width="6.000000"
	d="
M361.000000,54.500000 
	C365.528290,59.034595 363.889130,65.181679 364.823944,70.530769 
	C367.625397,86.560097 373.055939,101.443779 382.025177,114.983322 
	C390.982208,128.504425 398.393280,142.737305 402.438477,158.515778 
	C403.693268,163.410049 404.568176,168.393372 405.114319,173.487747 
	C407.621429,196.873978 399.892853,217.534943 389.025879,237.514084 
	C381.795654,250.807022 376.650787,264.923340 375.128082,280.012909 
	C374.107971,290.121552 375.727173,300.179321 378.436157,310.017578 
	C378.777954,311.258820 379.752319,312.551788 378.491119,314.287720 
	C370.690155,314.018768 363.351532,310.618378 357.123291,305.839294 
	C348.166138,298.966309 343.028961,289.674652 341.278961,278.033234 
	C339.407013,265.580872 342.707733,254.200195 345.402710,242.477631 
	C347.092255,235.128342 347.991211,227.599030 346.323975,219.983795 
	C345.780579,217.501770 346.483032,215.291641 348.937805,213.418503 
	C357.140717,207.159363 361.105560,198.068314 363.365021,188.468231 
	C366.047607,177.070312 365.015411,165.486282 363.018982,153.996704 
	C359.893341,136.008301 354.032990,118.640068 351.368591,100.519318 
	C349.368317,86.915260 350.565094,73.872658 355.024628,61.008533 
	C355.508759,59.611927 356.010162,57.956383 357.053284,57.062149 
	C363.090576,51.886539 364.125427,44.385891 366.500000,37.500000 
"/>
<path fill="none" opacity="1.000000" stroke="#000000" stroke-linecap="round" stroke-linejoin="round" stroke-width="2.000000"
	d="
M561.500000,541.500000 
	C573.099609,536.445862 582.373962,528.625000 587.373840,516.945984 
	C592.939392,503.945648 592.987061,490.817688 583.948730,479.039337 
	C574.046936,466.135803 554.686646,465.066528 542.007202,475.508759 
	C532.572998,483.278320 528.942139,494.107086 526.514709,505.503143 
	C524.396301,515.448792 523.925171,525.710999 520.976379,535.492859 
	C517.424866,547.274353 512.422791,558.479004 506.994568,569.497314 
	C504.359467,574.846191 501.258759,580.011780 499.152466,585.557922 
	C497.882172,588.902710 494.360626,591.528809 495.817047,596.058838 
	C496.368896,597.775330 490.182434,600.700134 487.000000,600.500000 
"/>
<path fill="none" opacity="1.000000" stroke="#000000" stroke-linecap="round" stroke-linejoin="round" stroke-width="2.000000"
	d="
M485.500000,582.500000 
	C496.164124,562.769714 504.333771,542.045715 508.358368,519.974182 
	C511.099243,504.942627 512.399536,489.652283 514.565369,474.509338 
	C515.162170,470.336639 515.683716,466.200653 515.484253,462.000732 
	C515.271667,457.524597 512.852722,455.889526 509.025757,458.045715 
	C485.671417,471.204193 459.676300,475.793091 434.008728,481.538940 
	C416.640198,485.427002 399.121826,488.825836 382.488342,495.470825 
	C381.913452,495.700500 381.166656,495.500000 380.500000,495.500000 
"/>
<path fill="none" opacity="1.000000" stroke="#000000" stroke-linecap="round" stroke-linejoin="round" stroke-width="2.000000"
	d="
M282.500000,632.500000 
	C304.470123,645.862915 328.516968,651.991882 353.985657,654.167908 
	C369.816864,655.520447 385.686493,655.686096 401.500000,657.000000 
"/>
<path fill="none" opacity="1.000000" stroke="#000000" stroke-linecap="round" stroke-linejoin="round" stroke-width="6.000000"
	d="
M322.500000,183.000000 
	C321.428741,185.702744 322.253815,188.360336 322.765167,190.997055 
	C324.851471,201.754562 326.780945,212.466873 324.633881,223.526001 
	C324.120392,226.171097 323.689301,229.233963 325.000000,232.000000 
"/>
<path fill="none" opacity="1.000000" stroke="#000000" stroke-linecap="round" stroke-linejoin="round" stroke-width="2.000000"
	d="
M415.500000,460.500000 
	C403.500000,460.500000 391.500000,460.500000 379.500000,460.500000 
"/>
<path fill="none" opacity="1.000000" stroke="#000000" stroke-linecap="round" stroke-linejoin="round" stroke-width="5.000000"
	d="
M347.000000,213.500000 
	C345.048553,210.989807 344.689362,207.798355 343.408936,205.042313 
	C339.583405,196.808060 334.380859,188.963196 326.782074,184.359695 
	C321.345917,181.066345 318.759216,176.240799 315.000000,172.000000 
"/>
<path fill="none" opacity="1.000000" stroke="#000000" stroke-linecap="round" stroke-linejoin="round" stroke-width="2.000000"
	d="
M332.500000,399.000000 
	C328.659576,400.578125 325.114288,398.495178 321.518646,397.889282 
	C315.736755,396.915009 310.100433,396.081299 304.500000,398.500000 
"/>
<path fill="none" opacity="1.000000" stroke="#000000" stroke-linecap="round" stroke-linejoin="round" stroke-width="2.000000"
	d="
M545.500000,550.500000 
	C540.796265,552.564758 536.789185,555.761536 532.500000,558.500000 
"/>
<path fill="none" opacity="1.000000" stroke="#000000" stroke-linecap="round" stroke-linejoin="round" stroke-width="2.000000"
	d="
M509.500000,582.500000 
	C507.620819,586.903992 503.040527,589.220703 501.000000,593.500000 
"/>
<path fill="none" opacity="1.000000" stroke="#000000" stroke-linecap="round" stroke-linejoin="round" stroke-width="2.000000"
	d="
M475.500000,598.500000 
	C475.166656,599.166687 474.813507,599.824219 474.503143,600.501465 
	C471.957184,606.056091 472.338867,606.869934 478.000000,608.000000 
"/>
<path fill="none" opacity="1.000000" stroke="#000000" stroke-linecap="round" stroke-linejoin="round" stroke-width="2.000000"
	d="
M340.500000,453.000000 
	C341.243286,455.073425 343.032867,454.356781 344.500000,454.500000 
"/>
</svg>